<?xml version="1.0" encoding="UTF-8" standalone="no"?>
<svg
   xmlns:dc="http://purl.org/dc/elements/1.1/"
   xmlns:cc="http://creativecommons.org/ns#"
   xmlns:rdf="http://www.w3.org/1999/02/22-rdf-syntax-ns#"
   xmlns:svg="http://www.w3.org/2000/svg"
   xmlns="http://www.w3.org/2000/svg"
   xmlns:sodipodi="http://sodipodi.sourceforge.net/DTD/sodipodi-0.dtd"
   xmlns:inkscape="http://www.inkscape.org/namespaces/inkscape"
   version="1.1"
   viewBox="0 0 798 343.29"
   id="svg7433"
   sodipodi:docname="MoonwardsLogo2020_HeavyOutline.svg"
   inkscape:version="0.92.4 (fd57863, 2020-04-02)"
   inkscape:export-filename="/home/kim/Moonwards-Additional/graphics/MoonwardsLogo2019_HeavyOutline.png"
   inkscape:export-xdpi="300"
   inkscape:export-ydpi="300">
  <defs
     id="defs7437" />
  <sodipodi:namedview
     pagecolor="#ffffff"
     bordercolor="#666666"
     borderopacity="1"
     objecttolerance="10"
     gridtolerance="10"
     guidetolerance="10"
     inkscape:pageopacity="0"
     inkscape:pageshadow="2"
     inkscape:window-width="2507"
     inkscape:window-height="1025"
     id="namedview7435"
     showgrid="false"
     inkscape:zoom="0.43859649"
     inkscape:cx="436.38725"
     inkscape:cy="139.40093"
     inkscape:window-x="53"
     inkscape:window-y="27"
     inkscape:window-maximized="1"
     inkscape:current-layer="layer2"
     showborder="false" />
  <metadata
     id="metadata7363">
    <rdf:RDF>
      <cc:Work
         rdf:about="">
        <dc:format>image/svg+xml</dc:format>
        <dc:type
           rdf:resource="http://purl.org/dc/dcmitype/StillImage" />
        <dc:title></dc:title>
      </cc:Work>
    </rdf:RDF>
  </metadata>
  <g
     inkscape:groupmode="layer"
     id="layer9"
     inkscape:label="Logo 1">
    <g
       id="g8037"
       transform="translate(6.4028,-224.29)"
       style="fill:#000000;fill-opacity:1;stroke:#696969;stroke-opacity:1;stroke-width:13;stroke-miterlimit:4;stroke-dasharray:none;stroke-linejoin:round">
      <g
         id="g8035"
         transform="matrix(1.0017 0 0 .99941 -34.427 -227.41)"
         fill="#fff"
         style="fill:#000000;fill-opacity:1;stroke:#696969;stroke-opacity:1;stroke-width:12.99279751;stroke-miterlimit:4;stroke-dasharray:none;stroke-linejoin:round">
        <g
           id="g8033"
           fill="#fff"
           style="fill:#000000;fill-opacity:1;stroke:#696969;stroke-opacity:1;stroke-width:12.99279751;stroke-miterlimit:4;stroke-dasharray:none;stroke-linejoin:round">
          <path
             id="path8029"
             d="m247.94 624.4c0 19.547-16.123 35.748-35.748 35.748-19.889 0-35.841-16.092-35.841-36.215 0-19.173 16.419-35.374 35.841-35.374 19.625 0 35.748 16.092 35.748 35.841zm-65.364-0.29568c0 16.465 13.306 29.818 29.616 29.818 16.123 0 29.523-13.353 29.523-29.429 0-16.263-13.4-29.709-29.523-29.709-16.03 0-29.616 13.446-29.616 29.32zm158.74 0.29568c0 19.547-16.123 35.748-35.748 35.748-19.889 0-35.841-16.092-35.841-36.215 0-19.173 16.419-35.374 35.841-35.374 19.625 0 35.748 16.092 35.748 35.841zm-65.364-0.29568c0 16.465 13.306 29.818 29.616 29.818 16.123 0 29.523-13.353 29.523-29.429 0-16.263-13.4-29.709-29.523-29.709-16.03 0-29.616 13.446-29.616 29.32zm90.264-33.989h8.6062l38.082 56.804v-56.804h6.2251v68.476h-6.2251l-40.463-60.228v60.228h-6.2251zm77.882-0.32653h6.3979l16.416 56.365 15.518-56.291h6.5519l15.175 57.179 16.816-57.074h6.2038l-19.42 68.476-6.8384-0.1046-15.329-56.15-15.111 56.15-7.0196-0.074zm119.53 0.32654h7.7347l29.678 68.476h-7.548l-10.007-23.344h-32.122l-10.069 23.344h-7.2834zm17.166 38.907-13.259-31.172-13.54 31.172zm85.113 29.569h-7.9059l-23.126-31.032c7.6102 0 12.077-0.35794 15.314-1.1828 6.8788-1.8831 10.412-6.6609 10.412-14.442 0-6.2096-2.599-10.847-7.2523-13.073-3.7195-1.7742-8.5284-2.49-15.781-2.49h-9.6489v62.22h-6.2251v-68.476h16.341c8.7774 0 14.567 1.0271 18.753 3.3304 6.5052 3.6261 10.038 10.116 10.038 18.753 0 12.123-6.8165 19.453-19.5 20.839zm24.262-68.476h15.734c12.45 0 19.718 1.4785 26.208 5.3692 10.24 6.0384 15.641 16.232 15.641 29.118 0 12.793-5.4781 22.784-15.874 28.884-6.054 3.5172-13.306 5.1046-23.624 5.1046h-18.084zm15.999 62.22c12.45 0 19.671-1.743 25.29-6.1006 6.4429-5.0735 10.069-12.964 10.069-21.928 0-10.194-4.6376-18.769-12.746-23.484-5.2914-3.1748-11.968-4.451-22.613-4.451h-9.7734v55.964zm69.982-12.59c0.58612 4.2798 1.6976 6.6142 4.2237 9.042 3.2535 3.1592 8.6897 5.1357 14.368 5.1357 10.286 0 17.905-5.7582 17.905-13.695 0-4.202-2.1422-7.7347-6.103-9.8668-2.8695-1.603-6.689-2.8947-13.641-4.5754-10.246-2.4278-12.994-3.4549-16.47-6.0695-3.9609-2.8947-6.2243-7.4546-6.2243-12.217 0-10.941 10.064-18.94 24.028-18.94 14.368 0 24.23 7.6102 24.574 19.033h-8.629c-0.6063-7.7502-7.0124-12.808-16.187-12.808-9.0737 0-15.702 5.3536-15.702 12.528 0 3.1592 1.6773 6.2407 4.2033 8.0148 2.3645 1.5874 5.0118 2.4122 13.014 4.2798 9.0938 2.1477 12.772 3.4549 16.369 5.4936 5.6382 3.2682 8.8513 8.684 8.8513 14.738 0 11.672-11.175 20.309-26.231 20.309-15.662 0-26.372-8.0771-27.201-20.403z"
             style="fill:#000000;fill-opacity:1;stroke:#696969;stroke-opacity:1;stroke-width:12.99279751;stroke-miterlimit:4;stroke-dasharray:none;stroke-linejoin:round" />
          <path
             id="path8031"
             d="m77.142 658.73h6.5765l16.416-56.365 15.518 56.291h6.5519l15.175-57.179 16.816 57.074h6.3823l-19.504-68.476-6.9334 0.1046-15.329 56.15-15.111-56.15-7.1149 0.074z"
             style="fill:#000000;fill-opacity:1;stroke:#696969;stroke-opacity:1;stroke-width:12.99279751;stroke-miterlimit:4;stroke-dasharray:none;stroke-linejoin:round" />
        </g>
      </g>
    </g>
  </g>
  <g
     inkscape:groupmode="layer"
     id="layer2"
     inkscape:label="Adjusting">
    <g
       style="fill:#000000;fill-opacity:1;stroke:#696969;stroke-opacity:1;stroke-width:13;stroke-miterlimit:4;stroke-dasharray:none;stroke-linejoin:round"
       transform="translate(6.4028,-224.29)"
       id="g966">
      <g
         style="fill:#000000;fill-opacity:1;stroke:#696969;stroke-opacity:1;stroke-width:12.99279751;stroke-miterlimit:4;stroke-dasharray:none;stroke-linejoin:round"
         fill="#fff"
         transform="matrix(1.0017 0 0 .99941 -34.427 -227.41)"
         id="g964">
        <g
           style="fill:#000000;fill-opacity:1;stroke:#696969;stroke-opacity:1;stroke-width:12.99279751;stroke-miterlimit:4;stroke-dasharray:none;stroke-linejoin:round"
           fill="#fff"
           id="g962">
          <path
             style="fill:#000000;fill-opacity:1;stroke:#696969;stroke-opacity:1;stroke-width:12.99279751;stroke-miterlimit:4;stroke-dasharray:none;stroke-linejoin:round"
             d="m247.94 624.4c0 19.547-16.123 35.748-35.748 35.748-19.889 0-35.841-16.092-35.841-36.215 0-19.173 16.419-35.374 35.841-35.374 19.625 0 35.748 16.092 35.748 35.841zm-65.364-0.29568c0 16.465 13.306 29.818 29.616 29.818 16.123 0 29.523-13.353 29.523-29.429 0-16.263-13.4-29.709-29.523-29.709-16.03 0-29.616 13.446-29.616 29.32zm158.74 0.29568c0 19.547-16.123 35.748-35.748 35.748-19.889 0-35.841-16.092-35.841-36.215 0-19.173 16.419-35.374 35.841-35.374 19.625 0 35.748 16.092 35.748 35.841zm-65.364-0.29568c0 16.465 13.306 29.818 29.616 29.818 16.123 0 29.523-13.353 29.523-29.429 0-16.263-13.4-29.709-29.523-29.709-16.03 0-29.616 13.446-29.616 29.32zm90.264-33.989h8.6062l38.082 56.804v-56.804h6.2251v68.476h-6.2251l-40.463-60.228v60.228h-6.2251zm77.882-0.32653h6.3979l16.416 56.365 15.518-56.291h6.5519l15.175 57.179 16.816-57.074h6.2038l-19.42 68.476-6.8384-0.1046-15.329-56.15-15.111 56.15-7.0196-0.074zm119.53 0.32654h7.7347l29.678 68.476h-7.548l-10.007-23.344h-32.122l-10.069 23.344h-7.2834zm17.166 38.907-13.259-31.172-13.54 31.172zm85.113 29.569h-7.9059l-23.126-31.032c7.6102 0 12.077-0.35794 15.314-1.1828 6.8788-1.8831 10.412-6.6609 10.412-14.442 0-6.2096-2.599-10.847-7.2523-13.073-3.7195-1.7742-8.5284-2.49-15.781-2.49h-9.6489v62.22h-6.2251v-68.476h16.341c8.7774 0 14.567 1.0271 18.753 3.3304 6.5052 3.6261 10.038 10.116 10.038 18.753 0 12.123-6.8165 19.453-19.5 20.839zm24.262-68.476h15.734c12.45 0 19.718 1.4785 26.208 5.3692 10.24 6.0384 15.641 16.232 15.641 29.118 0 12.793-5.4781 22.784-15.874 28.884-6.054 3.5172-13.306 5.1046-23.624 5.1046h-18.084zm15.999 62.22c12.45 0 19.671-1.743 25.29-6.1006 6.4429-5.0735 10.069-12.964 10.069-21.928 0-10.194-4.6376-18.769-12.746-23.484-5.2914-3.1748-11.968-4.451-22.613-4.451h-9.7734v55.964zm69.982-12.59c0.58612 4.2798 1.6976 6.6142 4.2237 9.042 3.2535 3.1592 8.6897 5.1357 14.368 5.1357 10.286 0 17.905-5.7582 17.905-13.695 0-4.202-2.1422-7.7347-6.103-9.8668-2.8695-1.603-6.689-2.8947-13.641-4.5754-10.246-2.4278-12.994-3.4549-16.47-6.0695-3.9609-2.8947-6.2243-7.4546-6.2243-12.217 0-10.941 10.064-18.94 24.028-18.94 14.368 0 24.23 7.6102 24.574 19.033h-8.629c-0.6063-7.7502-7.0124-12.808-16.187-12.808-9.0737 0-15.702 5.3536-15.702 12.528 0 3.1592 1.6773 6.2407 4.2033 8.0148 2.3645 1.5874 5.0118 2.4122 13.014 4.2798 9.0938 2.1477 12.772 3.4549 16.369 5.4936 5.6382 3.2682 8.8513 8.684 8.8513 14.738 0 11.672-11.175 20.309-26.231 20.309-15.662 0-26.372-8.0771-27.201-20.403z"
             id="path958" />
          <path
             style="fill:#000000;fill-opacity:1;stroke:#696969;stroke-opacity:1;stroke-width:12.99279751;stroke-miterlimit:4;stroke-dasharray:none;stroke-linejoin:round"
             d="m77.142 658.73h6.5765l16.416-56.365 15.518 56.291h6.5519l15.175-57.179 16.816 57.074h6.3823l-19.504-68.476-6.9334 0.1046-15.329 56.15-15.111-56.15-7.1149 0.074z"
             id="path960" />
        </g>
      </g>
    </g>
    <circle
       cx="171.64999"
       cy="171.64999"
       r="168.3"
       id="circle968"
       style="display:inline;fill-rule:evenodd;stroke:#505050;stroke-width:6.69589996;stroke-opacity:1" />
    <g
       style="display:inline"
       id="g978"
       transform="translate(6.4028,-224.29)">
      <g
         style="fill:#ebe9cf;stroke:#000000;stroke-width:7.83389997;stroke-linejoin:round"
         id="g976"
         transform="matrix(1.0017,0,0,0.99941,-34.459,-227.25)">
        <g
           style="fill:#ebe9cf;stroke:#000000;stroke-width:7.83389997;stroke-linejoin:round"
           id="g974">
          <path
             inkscape:connector-curvature="0"
             id="path970"
             d="m 247.94,624.4 c 0,19.547 -16.123,35.748 -35.748,35.748 -19.889,0 -35.841,-16.092 -35.841,-36.215 0,-19.173 16.419,-35.374 35.841,-35.374 19.625,0 35.748,16.092 35.748,35.841 z m -65.364,-0.29568 c 0,16.465 13.306,29.818 29.616,29.818 16.123,0 29.523,-13.353 29.523,-29.429 0,-16.263 -13.4,-29.709 -29.523,-29.709 -16.03,0 -29.616,13.446 -29.616,29.32 z M 341.316,624.4 c 0,19.547 -16.123,35.748 -35.748,35.748 -19.889,0 -35.841,-16.092 -35.841,-36.215 0,-19.173 16.419,-35.374 35.841,-35.374 19.625,0 35.748,16.092 35.748,35.841 z m -65.364,-0.29568 c 0,16.465 13.306,29.818 29.616,29.818 16.123,0 29.523,-13.353 29.523,-29.429 0,-16.263 -13.4,-29.709 -29.523,-29.709 -16.03,0 -29.616,13.446 -29.616,29.32 z m 90.264,-33.989 h 8.6062 l 38.082,56.804 v -56.804 h 6.2251 v 68.476 h -6.2251 l -40.463,-60.228 v 60.228 h -6.2251 z m 77.882,-0.32653 h 6.3979 l 16.416,56.365 15.518,-56.291 h 6.5519 l 15.175,57.179 16.816,-57.074 h 6.2038 l -19.42,68.476 -6.8384,-0.1046 -15.329,-56.15 -15.111,56.15 -7.0196,-0.074 z m 119.53,0.32654 h 7.7347 l 29.678,68.476 h -7.548 l -10.007,-23.344 h -32.122 l -10.069,23.344 h -7.2834 z m 17.166,38.907 -13.259,-31.172 -13.54,31.172 z m 85.113,29.569 h -7.9059 l -23.126,-31.032 c 7.6102,0 12.077,-0.35794 15.314,-1.1828 6.8788,-1.8831 10.412,-6.6609 10.412,-14.442 0,-6.2096 -2.599,-10.847 -7.2523,-13.073 -3.7195,-1.7742 -8.5284,-2.49 -15.781,-2.49 h -9.6489 v 62.22 h -6.2251 v -68.476 h 16.341 c 8.7774,0 14.567,1.0271 18.753,3.3304 6.5052,3.6261 10.038,10.116 10.038,18.753 0,12.123 -6.8165,19.453 -19.5,20.839 z m 24.262,-68.476 h 15.734 c 12.45,0 19.718,1.4785 26.208,5.3692 10.24,6.0384 15.641,16.232 15.641,29.118 0,12.793 -5.4781,22.784 -15.874,28.884 -6.054,3.5172 -13.306,5.1046 -23.624,5.1046 H 690.17 Z m 15.999,62.22 c 12.45,0 19.671,-1.743 25.29,-6.1006 6.4429,-5.0735 10.069,-12.964 10.069,-21.928 0,-10.194 -4.6376,-18.769 -12.746,-23.484 -5.2914,-3.1748 -11.968,-4.451 -22.613,-4.451 h -9.7734 v 55.964 z m 69.982,-12.59 c 0.58612,4.2798 1.6976,6.6142 4.2237,9.042 3.2535,3.1592 8.6897,5.1357 14.368,5.1357 10.286,0 17.905,-5.7582 17.905,-13.695 0,-4.202 -2.1422,-7.7347 -6.103,-9.8668 -2.8695,-1.603 -6.689,-2.8947 -13.641,-4.5754 -10.246,-2.4278 -12.994,-3.4549 -16.47,-6.0695 -3.9609,-2.8947 -6.2243,-7.4546 -6.2243,-12.217 0,-10.941 10.064,-18.94 24.028,-18.94 14.368,0 24.23,7.6102 24.574,19.033 h -8.629 c -0.6063,-7.7502 -7.0124,-12.808 -16.187,-12.808 -9.0737,0 -15.702,5.3536 -15.702,12.528 0,3.1592 1.6773,6.2407 4.2033,8.0148 2.3645,1.5874 5.0118,2.4122 13.014,4.2798 9.0938,2.1477 12.772,3.4549 16.369,5.4936 5.6382,3.2682 8.8513,8.684 8.8513,14.738 0,11.672 -11.175,20.309 -26.231,20.309 -15.662,0 -26.372,-8.0771 -27.201,-20.403 z" />
          <path
             inkscape:connector-curvature="0"
             id="path972"
             d="m 77.142,658.73 h 6.5765 l 16.416,-56.365 15.518,56.291 h 6.5519 l 15.175,-57.179 16.816,57.074 h 6.3823 l -19.504,-68.476 -6.9334,0.1046 -15.329,56.15 -15.111,-56.15 -7.1149,0.074 z" />
        </g>
      </g>
    </g>
    <g
       transform="translate(6.403,-224.284)"
       id="g982">
      <path
         d="m 0.4979,396.38 c -0.095258,87.77 70.109,155.84 154.94,155.55 -58.462,0 -130.41,-61.557 -130.37,-153.48 0.04153,-94.286 72.391,-156.14 130.37,-156.14 -82.918,0.29564 -154.85,67.106 -154.94,154.07 z"
         id="path980"
         inkscape:connector-curvature="0"
         style="fill:#dcdcd4" />
    </g>
    <circle
       style="fill:#ffff00;stroke:#ffffff;stroke-width:20;stroke-linejoin:round;stroke-opacity:0.19838;stroke-miterlimit:4;stroke-dasharray:none"
       id="circle984"
       r="8.2819996"
       cy="284.431"
       cx="157.01999" />
    <circle
       style="fill:#ffff00;stroke:#ffffa5;stroke-width:20;stroke-linejoin:round;stroke-opacity:0.27807001;stroke-miterlimit:4;stroke-dasharray:none"
       id="circle986"
       r="7.6816001"
       cy="242.071"
       cx="163.48" />
    <circle
       style="fill:#ffff00;stroke:#ffffff;stroke-width:10;stroke-linejoin:round;stroke-opacity:0.29803923;stroke-miterlimit:4;stroke-dasharray:none"
       id="circle988"
       r="5.7042999"
       cy="215.54097"
       cx="231.82001" />
    <circle
       style="fill:#ffff00;stroke:#ffffff;stroke-width:10;stroke-linejoin:round;stroke-opacity:0.19838;stroke-miterlimit:4;stroke-dasharray:none"
       id="circle990"
       r="7.3614001"
       cy="169.52101"
       cx="128.98999" />
    <circle
       style="fill:#ffff00;stroke:#ffffff;stroke-width:10;stroke-linejoin:round;stroke-opacity:0.29803923;stroke-miterlimit:4;stroke-dasharray:none"
       id="circle992"
       r="6.9931998"
       cy="105.37099"
       cx="171.20999" />
    <circle
       style="fill:#ffff00;stroke:#ffffb7;stroke-width:20;stroke-linejoin:round;stroke-opacity:0.28342004;stroke-miterlimit:4;stroke-dasharray:none"
       id="circle994"
       r="8.5012999"
       cy="130.84099"
       cx="197.14999" />
    <circle
       style="fill:#ffff00;stroke:#ffffff;stroke-width:10;stroke-linejoin:round;stroke-opacity:0.32086002;stroke-miterlimit:4;stroke-dasharray:none"
       id="circle996"
       r="5.7042999"
       cy="182.28099"
       cx="203.53999" />
    <circle
       style="fill:#ffff00;stroke:#ffffff;stroke-width:10;stroke-linejoin:round;stroke-opacity:0.3262;stroke-miterlimit:4;stroke-dasharray:none"
       id="circle998"
       r="7.1773"
       cy="143.411"
       cx="276.85999" />
    <circle
       style="fill:#ffff00;stroke:#ffffff;stroke-width:10;stroke-linejoin:round;stroke-opacity:0.29947001;stroke-miterlimit:4;stroke-dasharray:none"
       id="circle1000"
       r="5.7042999"
       cy="90.120987"
       cx="263.35001" />
    <circle
       style="fill:#ffff00;stroke:#ffffff;stroke-width:20;stroke-linejoin:round;stroke-opacity:0.27807001;stroke-miterlimit:4;stroke-dasharray:none"
       id="circle1002"
       r="7.7296"
       cy="107.041"
       cx="218.45999" />
    <circle
       style="fill:#ffff00;stroke:#ffffff;stroke-width:20;stroke-linejoin:round;stroke-opacity:0.19838;stroke-miterlimit:4;stroke-dasharray:none"
       id="circle1004"
       r="8.8343"
       cy="74.380997"
       cx="210.73999" />
    <circle
       style="fill:#ffff00;stroke:#ffffff;stroke-width:10;stroke-linejoin:round;stroke-opacity:0.28877001;stroke-miterlimit:4;stroke-dasharray:none"
       id="circle1006"
       r="5.7042999"
       cy="269.73099"
       cx="170.81" />
    <circle
       style="fill:#ffff00;stroke:#ffec00;stroke-width:10;stroke-linejoin:round;stroke-opacity:0.36841999;stroke-miterlimit:4;stroke-dasharray:none"
       id="circle1008"
       r="4.4429002"
       cy="252.75099"
       cx="255.17999" />
    <circle
       style="fill:#ffff00;stroke:#ffec00;stroke-width:10;stroke-linejoin:round;stroke-opacity:0.36841999;stroke-miterlimit:4;stroke-dasharray:none"
       id="circle1010"
       r="5.4657998"
       cy="217.05098"
       cx="213.16998" />
    <circle
       style="fill:#ffff00;stroke:#ffec00;stroke-width:10;stroke-linejoin:round;stroke-opacity:0.36841999;stroke-miterlimit:4;stroke-dasharray:none"
       id="circle1012"
       r="4.8175998"
       cy="250.511"
       cx="83.200005" />
    <circle
       style="fill:#ffff00;stroke:#ffec00;stroke-width:10;stroke-linejoin:round;stroke-opacity:0.29803923;stroke-miterlimit:4;stroke-dasharray:none"
       id="circle1014"
       r="7.0861001"
       cy="281.94101"
       cx="128.12" />
    <circle
       style="fill:#ffff00;stroke:#ffec00;stroke-width:10;stroke-linejoin:round;stroke-opacity:0.36841999;stroke-miterlimit:4;stroke-dasharray:none"
       id="circle1016"
       r="4.9797001"
       cy="49.690994"
       cx="125.02" />
    <circle
       style="fill:#ffff00;stroke:#ffec00;stroke-width:10;stroke-linejoin:round;stroke-opacity:0.36841999;stroke-miterlimit:4;stroke-dasharray:none"
       id="circle1018"
       r="5.4657998"
       cy="55.021011"
       cx="155.70999" />
    <g
       style="display:inline"
       id="g1032"
       transform="translate(6.4028,-224.29)">
      <g
         style="fill:#ffffff"
         id="g1030"
         transform="matrix(1.0017,0,0,0.99941,-34.427,-227.41)">
        <g
           style="fill:#ffffff"
           id="g1028">
          <path
             inkscape:connector-curvature="0"
             id="path1024"
             d="m 247.94,624.4 c 0,19.547 -16.123,35.748 -35.748,35.748 -19.889,0 -35.841,-16.092 -35.841,-36.215 0,-19.173 16.419,-35.374 35.841,-35.374 19.625,0 35.748,16.092 35.748,35.841 z m -65.364,-0.29568 c 0,16.465 13.306,29.818 29.616,29.818 16.123,0 29.523,-13.353 29.523,-29.429 0,-16.263 -13.4,-29.709 -29.523,-29.709 -16.03,0 -29.616,13.446 -29.616,29.32 z M 341.316,624.4 c 0,19.547 -16.123,35.748 -35.748,35.748 -19.889,0 -35.841,-16.092 -35.841,-36.215 0,-19.173 16.419,-35.374 35.841,-35.374 19.625,0 35.748,16.092 35.748,35.841 z m -65.364,-0.29568 c 0,16.465 13.306,29.818 29.616,29.818 16.123,0 29.523,-13.353 29.523,-29.429 0,-16.263 -13.4,-29.709 -29.523,-29.709 -16.03,0 -29.616,13.446 -29.616,29.32 z m 90.264,-33.989 h 8.6062 l 38.082,56.804 v -56.804 h 6.2251 v 68.476 h -6.2251 l -40.463,-60.228 v 60.228 h -6.2251 z m 77.882,-0.32653 h 6.3979 l 16.416,56.365 15.518,-56.291 h 6.5519 l 15.175,57.179 16.816,-57.074 h 6.2038 l -19.42,68.476 -6.8384,-0.1046 -15.329,-56.15 -15.111,56.15 -7.0196,-0.074 z m 119.53,0.32654 h 7.7347 l 29.678,68.476 h -7.548 l -10.007,-23.344 h -32.122 l -10.069,23.344 h -7.2834 z m 17.166,38.907 -13.259,-31.172 -13.54,31.172 z m 85.113,29.569 h -7.9059 l -23.126,-31.032 c 7.6102,0 12.077,-0.35794 15.314,-1.1828 6.8788,-1.8831 10.412,-6.6609 10.412,-14.442 0,-6.2096 -2.599,-10.847 -7.2523,-13.073 -3.7195,-1.7742 -8.5284,-2.49 -15.781,-2.49 h -9.6489 v 62.22 h -6.2251 v -68.476 h 16.341 c 8.7774,0 14.567,1.0271 18.753,3.3304 6.5052,3.6261 10.038,10.116 10.038,18.753 0,12.123 -6.8165,19.453 -19.5,20.839 z m 24.262,-68.476 h 15.734 c 12.45,0 19.718,1.4785 26.208,5.3692 10.24,6.0384 15.641,16.232 15.641,29.118 0,12.793 -5.4781,22.784 -15.874,28.884 -6.054,3.5172 -13.306,5.1046 -23.624,5.1046 H 690.17 Z m 15.999,62.22 c 12.45,0 19.671,-1.743 25.29,-6.1006 6.4429,-5.0735 10.069,-12.964 10.069,-21.928 0,-10.194 -4.6376,-18.769 -12.746,-23.484 -5.2914,-3.1748 -11.968,-4.451 -22.613,-4.451 h -9.7734 v 55.964 z m 69.982,-12.59 c 0.58612,4.2798 1.6976,6.6142 4.2237,9.042 3.2535,3.1592 8.6897,5.1357 14.368,5.1357 10.286,0 17.905,-5.7582 17.905,-13.695 0,-4.202 -2.1422,-7.7347 -6.103,-9.8668 -2.8695,-1.603 -6.689,-2.8947 -13.641,-4.5754 -10.246,-2.4278 -12.994,-3.4549 -16.47,-6.0695 -3.9609,-2.8947 -6.2243,-7.4546 -6.2243,-12.217 0,-10.941 10.064,-18.94 24.028,-18.94 14.368,0 24.23,7.6102 24.574,19.033 h -8.629 c -0.6063,-7.7502 -7.0124,-12.808 -16.187,-12.808 -9.0737,0 -15.702,5.3536 -15.702,12.528 0,3.1592 1.6773,6.2407 4.2033,8.0148 2.3645,1.5874 5.0118,2.4122 13.014,4.2798 9.0938,2.1477 12.772,3.4549 16.369,5.4936 5.6382,3.2682 8.8513,8.684 8.8513,14.738 0,11.672 -11.175,20.309 -26.231,20.309 -15.662,0 -26.372,-8.0771 -27.201,-20.403 z" />
          <path
             inkscape:connector-curvature="0"
             id="path1026"
             d="m 77.142,658.73 h 6.5765 l 16.416,-56.365 15.518,56.291 h 6.5519 l 15.175,-57.179 16.816,57.074 h 6.3823 l -19.504,-68.476 -6.9334,0.1046 -15.329,56.15 -15.111,-56.15 -7.1149,0.074 z" />
        </g>
      </g>
    </g>
  </g>
</svg>
